<?xml version="1.0" encoding="UTF-8"?>
<!DOCTYPE svg PUBLIC "-//W3C//DTD SVG 1.1//EN" "http://www.w3.org/Graphics/SVG/1.1/DTD/svg11.dtd">
<!-- Creator: CorelDRAW X7 -->
<svg xmlns="http://www.w3.org/2000/svg" xml:space="preserve" width="11.6929in" height="8.26772in" version="1.1" style="shape-rendering:geometricPrecision; text-rendering:geometricPrecision; image-rendering:optimizeQuality; fill-rule:evenodd; clip-rule:evenodd"
viewBox="0 0 11693 8268"
 xmlns:xlink="http://www.w3.org/1999/xlink">
 <defs>
  <style type="text/css">
   <![CDATA[
    .str0 {stroke:#FEFEFE;stroke-width:7.87402;stroke-opacity:0.301961}
    .fil2 {fill:#FEFEFE;fill-rule:nonzero}
    .fil4 {fill:#F29133;fill-rule:nonzero}
    .fil3 {fill:#264559;fill-rule:nonzero}
    .fil5 {fill:#FEFEFE;fill-opacity:0.301961}
    .fil1 {fill:url(#id0)}
    .fil0 {fill:url(#id1)}
   ]]>
  </style>
  <radialGradient id="id0" gradientUnits="userSpaceOnUse" gradientTransform="matrix(0.842635 -0 -0 0.80854 858 798)" cx="5450.72" cy="4167.78" r="897.307" fx="5450.72" fy="4167.78">
   <stop offset="0" style="stop-opacity:1; stop-color:#3881B8"/>
   <stop offset="0.25098" style="stop-opacity:1; stop-color:#3881B8"/>
   <stop offset="0.501961" style="stop-opacity:1; stop-color:#2E5980"/>
   <stop offset="1" style="stop-opacity:1; stop-color:#263A55"/>
  </radialGradient>
  <radialGradient id="id1" gradientUnits="userSpaceOnUse" gradientTransform="matrix(1.34615 -0 -0 1.29168 -1905 -1111)" cx="5503.59" cy="3809.93" r="647.728" fx="5503.59" fy="3809.93">
   <stop offset="0" style="stop-opacity:1; stop-color:#CFDC5E"/>
   <stop offset="0.439216" style="stop-opacity:1; stop-color:#CFDC5E"/>
   <stop offset="0.6" style="stop-opacity:1; stop-color:#E3BC57"/>
   <stop offset="1" style="stop-opacity:1; stop-color:#F3994E"/>
  </radialGradient>
 </defs>
 <g id="Layer_x0020_1">
  <metadata id="CorelCorpID_0Corel-Layer"/>
  <g id="_712979288">
   <path class="fil0" d="M5334 3552c39,371 157,936 499,1367l0 0c356,-46 632,-363 632,-746 0,-416 -323,-753 -722,-753 -152,0 -293,49 -409,132l0 0z"/>
   <path class="fil1" d="M5219 3615c-163,138 -267,348 -267,584l0 0c0,416 323,753 722,753l0 0c16,0 32,-1 48,-2l0 0c68,76 144,141 227,194 -68,-62 -129,-128 -185,-198l0 0c-342,-431 -459,-996 -499,-1367l0 0c-25,-232 -19,-387 -19,-387 -29,99 -39,249 -27,423l0 0z"/>
   <path class="fil2" d="M5171 4219c563,-1018 1751,-291 594,241 717,-441 -42,-970 -594,-241z"/>
   <path class="fil3" d="M5466 3380l-47 -213 62 -15c24,-5 39,-8 47,-8 12,1 23,6 32,15 10,9 17,21 21,38 3,14 3,25 1,35 -3,10 -7,18 -12,25 -5,7 -11,12 -18,15 -9,4 -22,8 -39,13l-26 6 18 80 -39 9zm0 -186l13 61 22 -5c15,-4 25,-8 29,-11 5,-4 8,-8 10,-14 2,-5 2,-11 1,-17 -2,-8 -5,-14 -11,-18 -5,-4 -11,-6 -17,-6 -5,0 -14,2 -28,5l-19 5z"/>
   <path class="fil3" d="M5833 3345l-43 -1 -16 -50 -80 -1 -17 49 -42 -1 80 -217 42 1 76 220zm-72 -88l-26 -82 -28 81 54 1z"/>
   <path class="fil3" d="M5893 3362l62 -209 81 26c20,6 34,13 42,19 8,7 13,16 16,27 3,12 2,24 -2,36 -4,16 -12,27 -24,35 -11,8 -25,10 -42,7 6,8 11,16 15,24 3,8 7,22 11,41l11 48 -45 -14 -14 -55c-5,-19 -9,-31 -11,-37 -3,-5 -6,-9 -9,-12 -4,-3 -10,-6 -19,-9l-8 -2 -25 87 -39 -12zm74 -108l29 9c18,6 29,8 35,8 5,0 9,-2 13,-5 4,-4 6,-9 8,-15 2,-7 2,-13 0,-19 -2,-5 -6,-9 -12,-12 -3,-2 -12,-5 -27,-10l-30 -10 -16 54z"/>
   <path class="fil3" d="M6242 3539l-36 -24 11 -52 -66 -45 -40 33 -35 -24 178 -140 36 24 -48 228zm-16 -114l19 -84 -64 53 45 31z"/>
   <path class="fil3" d="M6335 3538l28 28c-8,11 -13,22 -13,32 0,10 4,19 12,29 8,10 16,15 25,17 9,1 16,-1 22,-7 3,-3 6,-7 7,-12 0,-4 0,-10 -3,-17 -2,-5 -6,-15 -14,-31 -10,-21 -14,-37 -14,-50 1,-17 8,-32 20,-43 8,-7 18,-12 28,-14 11,-2 22,0 33,5 10,5 21,13 31,25 16,19 24,38 23,56 0,18 -8,33 -22,47l-27 -30c7,-9 10,-17 10,-25 0,-7 -4,-15 -11,-24 -8,-9 -16,-15 -24,-16 -5,-1 -10,0 -14,4 -3,3 -5,8 -5,13 0,7 4,20 13,39 9,18 15,33 17,44 2,11 2,21 -2,31 -3,11 -10,20 -20,30 -9,8 -19,13 -31,15 -12,3 -24,1 -36,-5 -11,-5 -22,-14 -34,-28 -16,-20 -24,-39 -24,-58 1,-19 9,-37 25,-55z"/>
   <path class="fil4" d="M6482 3906l202 -61 18 64c6,24 10,40 10,48 0,12 -4,24 -12,35 -8,10 -20,18 -36,23 -12,4 -23,5 -33,3 -10,-2 -18,-5 -25,-11 -6,-5 -12,-11 -15,-18 -5,-8 -9,-22 -14,-40l-8 -26 -76 23 -11 -40zm179 -11l-58 18 6 22c5,15 9,25 12,30 4,5 8,8 14,9 5,2 11,2 17,0 7,-2 13,-6 16,-12 4,-5 5,-12 5,-18 -1,-5 -3,-15 -7,-29l-5 -20z"/>
   <path class="fil4" d="M6529 4119l210 -7 3 88c1,22 -1,38 -4,48 -4,10 -10,18 -20,25 -9,6 -20,9 -32,10 -16,0 -29,-4 -40,-13 -10,-8 -17,-22 -20,-40 -6,10 -11,17 -17,23 -7,6 -18,14 -34,25l-40 26 -1 -49 44 -32c16,-11 26,-19 31,-23 4,-4 6,-8 8,-12 1,-5 2,-12 2,-22l-1 -8 -87 3 -2 -42zm123 38l1 31c0,20 2,32 3,37 2,5 5,9 10,11 4,3 9,4 16,4 7,0 12,-2 17,-6 4,-4 6,-9 7,-16 1,-3 1,-14 0,-30l-1 -33 -53 2z"/>
   <polygon class="fil4" points="6522,4342 6728,4381 6721,4422 6515,4383 "/>
   <polygon class="fil4" points="6494,4477 6687,4563 6672,4600 6510,4620 6640,4678 6625,4713 6432,4627 6448,4589 6606,4569 6479,4512 "/>
   <polygon class="fil4" points="6359,4734 6496,4847 6532,4799 6560,4822 6464,4950 6436,4927 6472,4880 6334,4767 "/>
   <path class="fil5 str0" d="M5160 4716l-13 1c0,0 -150,-170 -183,-363 0,0 -39,-226 16,-365 0,0 72,-310 374,-451 0,0 411,-250 845,40 0,0 242,159 186,304 0,0 7,89 -307,203 0,0 -530,138 -772,367 0,0 -122,101 -146,264z"/>
  </g>
 </g>
</svg>
